<svg xmlns="http://www.w3.org/2000/svg" width="512" height="512" viewBox="0 0 512 512" role="img" aria-label="Kuviewer YAML Flow icon">
  <defs>
    <linearGradient id="doc" x1="0" x2="1" y1="0" y2="1">
      <stop offset="0" stop-color="#ffffff"/>
      <stop offset="1" stop-color="#f7fbff"/>
    </linearGradient>
    <linearGradient id="fold" x1="0" x2="1" y1="0" y2="1">
      <stop offset="0" stop-color="#eef4fb"/>
      <stop offset="1" stop-color="#cfdbea"/>
    </linearGradient>
  </defs>
  <g>
    <path d="M120 64h196l76 76v280c0 22-18 40-40 40H120c-22 0-40-18-40-40V104c0-22 18-40 40-40z" fill="url(#doc)" stroke="#cbd8e8" stroke-width="8"/>
    <path d="M316 64v78c0 18 14 32 32 32h44z" fill="url(#fold)" stroke="#cbd8e8" stroke-width="8" stroke-linejoin="round"/>
    <path d="M144 136h102M144 184h76" fill="none" stroke="#c8d3e3" stroke-width="18" stroke-linecap="round"/>
    <path d="M256 176l-76 146h152z" fill="none" stroke="#31435b" stroke-width="24" stroke-linecap="round" stroke-linejoin="round"/>
    <circle cx="256" cy="176" r="45" fill="#267aff" stroke="#0b63d9" stroke-width="8"/>
    <circle cx="180" cy="322" r="45" fill="#28b853" stroke="#168b3a" stroke-width="8"/>
    <circle cx="332" cy="322" r="45" fill="#ff9500" stroke="#cb7300" stroke-width="8"/>
  </g>
</svg>
